<?xml version="1.0" standalone="no"?>
<!DOCTYPE svg PUBLIC "-//W3C//DTD SVG 20010904//EN"
 "http://www.w3.org/TR/2001/REC-SVG-20010904/DTD/svg10.dtd">
<svg version="1.0" xmlns="http://www.w3.org/2000/svg"
 width="1500.000000pt" height="500.000000pt" viewBox="0 0 1500.000000 500.000000"
 preserveAspectRatio="xMidYMid meet">

<g transform="translate(0.000000,500.000000) scale(0.100000,-0.100000)"
fill="#000000" stroke="none">
<path d="M4635 4001 c-429 -111 -756 -459 -831 -885 -18 -106 -18 -283 1 -383
67 -352 300 -649 630 -804 246 -115 534 -132 788 -45 108 37 257 127 366 223
l43 38 -53 74 c-30 41 -63 85 -75 99 l-21 26 -81 -65 c-102 -82 -193 -131
-307 -165 -77 -23 -108 -27 -215 -27 -106 1 -139 5 -215 27 -338 101 -573 378
-615 724 -29 237 54 480 224 659 163 172 345 260 562 270 224 11 436 -65 595
-214 29 -27 53 -42 58 -37 4 5 34 45 66 89 32 44 63 84 69 88 14 10 -64 82
-159 146 -92 64 -191 112 -295 147 -79 26 -98 28 -275 31 -158 2 -202 -1 -260
-16z"/>
<path d="M7810 2931 l0 -1071 125 0 125 0 0 390 0 390 248 0 c258 1 344 10
457 48 218 74 406 265 460 468 21 76 21 231 0 309 -60 232 -250 420 -510 506
-68 22 -84 23 -487 27 l-418 3 0 -1070z m791 809 c76 -14 189 -71 245 -122
250 -229 159 -590 -175 -700 -60 -19 -92 -22 -338 -26 l-273 -4 0 431 0 431
244 0 c134 0 268 -5 297 -10z"/>
<path d="M6050 2930 l0 -1060 625 0 625 0 0 115 0 115 -510 0 -510 0 2 373 3
372 438 3 437 2 0 115 0 115 -440 0 -440 0 0 340 0 340 508 2 507 3 3 113 3
112 -626 0 -625 0 0 -1060z"/>
<path d="M9678 2930 l2 -1060 115 0 115 0 0 415 0 415 203 0 202 0 295 -415
295 -414 149 -1 c141 0 148 1 133 18 -8 9 -151 202 -316 427 -285 388 -300
410 -279 419 147 59 245 133 316 240 92 137 124 271 103 425 -33 237 -173 420
-403 525 -128 60 -184 66 -580 66 l-353 0 3 -1060z m751 815 c87 -23 160 -64
220 -124 216 -217 151 -542 -136 -679 l-78 -37 -262 -3 -263 -3 0 430 0 431
233 0 c169 0 247 -4 286 -15z"/>
<path d="M5666 1342 c-74 -165 -85 -187 -135 -296 -28 -59 -51 -110 -51 -112
0 -2 13 -4 29 -4 24 0 33 7 48 38 l18 37 135 3 135 3 17 -41 c15 -34 23 -40
48 -40 l29 0 -19 45 c-43 98 -60 134 -107 235 -28 58 -56 121 -63 141 -7 20
-20 46 -29 58 -15 20 -17 18 -55 -67z m64 -74 c21 -53 60 -141 76 -170 8 -14
14 -29 14 -32 0 -3 -50 -6 -110 -6 l-110 0 15 38 c39 96 90 202 96 202 4 0 12
-15 19 -32z"/>
<path d="M5950 1241 l0 -186 32 -46 c38 -57 81 -79 151 -79 61 0 102 21 143
76 l29 37 3 192 4 193 -25 -5 -25 -5 -4 -172 c-3 -190 -9 -208 -71 -247 -61
-39 -141 -7 -173 68 -10 23 -14 79 -14 192 l0 159 -25 4 -25 5 0 -186z"/>
<path d="M6380 1400 l0 -30 70 0 70 0 0 -220 0 -220 30 0 30 0 0 220 0 220 71
0 70 0 -3 28 -3 27 -167 3 -168 2 0 -30z"/>
<path d="M6905 1418 c-75 -27 -126 -79 -156 -159 -23 -61 -24 -87 -2 -156 34
-108 123 -173 238 -173 146 1 249 104 248 250 0 78 -20 127 -72 179 -62 62
-175 88 -256 59z m176 -70 c119 -66 133 -241 27 -321 -52 -40 -111 -53 -166
-38 -99 26 -158 107 -150 206 5 64 35 112 92 149 53 34 140 36 197 4z"/>
<path d="M8026 1415 c-83 -29 -147 -103 -167 -190 -24 -106 34 -220 136 -271
74 -36 171 -32 234 9 45 30 47 34 27 60 -13 17 -16 17 -51 -7 -48 -33 -97 -42
-148 -26 -59 17 -101 52 -126 104 -47 100 -9 206 93 258 53 27 130 21 184 -14
38 -26 39 -26 51 -6 11 17 9 24 -10 44 -45 48 -148 66 -223 39z"/>
<path d="M8445 1406 c-92 -43 -144 -126 -145 -229 0 -71 24 -128 77 -179 50
-49 99 -68 175 -68 78 0 134 26 188 87 140 159 24 412 -190 413 -37 0 -71 -8
-105 -24z m195 -56 c47 -24 84 -70 101 -128 33 -113 -74 -242 -202 -242 -45 0
-122 46 -152 92 -22 35 -27 53 -27 105 0 36 6 76 14 91 18 35 64 78 96 91 43
17 127 13 170 -9z"/>
<path d="M8880 1178 l0 -248 150 0 150 0 0 30 0 30 -120 0 -120 0 0 214 0 214
-30 4 -30 5 0 -249z"/>
<path d="M7500 1175 l0 -245 145 0 145 0 0 30 0 30 -120 0 -120 0 0 85 0 85
105 0 c105 0 105 0 105 25 0 24 -1 24 -102 27 l-103 3 -3 78 -3 77 121 0 120
0 0 25 0 25 -145 0 -145 0 0 -245z"/>
<path d="M9240 1175 l0 -245 145 0 145 0 0 30 0 30 -120 0 -120 0 0 85 0 85
105 0 c105 0 105 0 105 25 0 24 -1 24 -102 27 l-103 3 -3 78 -3 77 121 0 120
0 0 25 0 25 -145 0 -145 0 0 -245z"/>
<path d="M3792 1188 l3 -23 698 -3 697 -2 0 25 0 25 -701 0 -700 0 3 -22z"/>
<path d="M9812 1188 l3 -23 698 -3 697 -2 0 25 0 25 -701 0 -700 0 3 -22z"/>
</g>
</svg>
