<svg xmlns="http://www.w3.org/2000/svg" viewBox="0 0 340.12 227.33"><title>tablette-conforme</title><rect x="33.09" y="19.7" width="252.2" height="195.62"/><path d="M9.49,2H309.71a7.49,7.49,0,0,1,7.49,7.49V217.84a7.5,7.5,0,0,1-7.5,7.5H9.49A7.49,7.49,0,0,1,2,217.84V9.49A7.49,7.49,0,0,1,9.49,2Z"/><path d="M309.71,3a6.5,6.5,0,0,1,6.49,6.49V217.84a6.5,6.5,0,0,1-6.49,6.49H9.49A6.5,6.5,0,0,1,3,217.84V9.49A6.5,6.5,0,0,1,9.49,3H309.71m0-2H9.49A8.51,8.51,0,0,0,1,9.49V217.84a8.51,8.51,0,0,0,8.49,8.49H309.71a8.51,8.51,0,0,0,8.49-8.49V9.49A8.51,8.51,0,0,0,309.71,1Z" fill="#4d4d4d"/><path d="M18.42,127.74a2.14,2.14,0,1,1-2.13,2.13A2.13,2.13,0,0,1,18.42,127.74Z" fill="#6c6c6c"/><rect x="16.76" y="103.02" width="3.34" height="20.17" rx="0.77" ry="0.77" fill="#6c6c6c"/><path d="M301.66,110.28a7.24,7.24,0,1,1-7.24,7.23A7.23,7.23,0,0,1,301.66,110.28Z" fill="#222" stroke="#4d4d4d" stroke-miterlimit="10" stroke-width="0.5"/><rect x="33.15" y="35.91" width="252.07" height="141.46"/><path d="M285.22,89.22H33.15V24.06H285.22Z" fill="#94cfff"/><path d="M285.22,128.42H33.15v-44H285.22Z" fill="#67d4ad"/><path d="M96.09,128.42m-2.7,0L124,86a5.7,5.7,0,0,1,4.25-1.62h55.08a6.61,6.61,0,0,1,4.5,1.62l36.86,42.41Z" fill="#d0d0d0"/><path d="M156.1,84.39c-1.16,0-2.22.49-2.24,1.11l-.51,6.6c0,.62.9,1.1,2.13,1.1h2.31c1.23,0,2.08-.48,2-1.1l-1.53-6.6c-.12-.62-1.25-1.11-2.41-1.11Zm6.59,25.32-2.49-11c-.12-.62-1.25-1.1-2.41-1.1h-2.13c-1.16,0-2.22.48-2.24,1.1l-.79,11v.14c0,.55,1,1,2.06,1h6.09c1,0,2-.41,1.91-1Zm-11.21,17.61a10.92,10.92,0,0,1-.09,1.1h14.92l-.22-1.1-2-8.8c-.12-.62-1.25-1.11-2.41-1.11H154.4c-1.16,0-2.21.49-2.23,1.11l-.69,8.8c0,.62,0,0-.09,1.1" fill="#fff"/><path d="M285.22,128.42H33.15v74.85H285.22V128.42Z" fill="#333"/><rect x="43.87" y="139.8" width="190.25" height="4.84" fill="#d9d9d9"/><rect x="43.87" y="151.98" width="148.79" height="4.84" fill="#d9d9d9"/><rect x="82.73" y="173.83" width="35.8" height="4.84" fill="#d9d9d9"/><rect x="174.77" y="173.83" width="35.8" height="4.84" fill="#d9d9d9"/><path d="M283,200.15H262.79V179.89H283v20.26Z" fill="#15bd81"/><rect x="212.97" y="77.48" width="1.79" height="20.12" fill="#d0d0d0"/><circle cx="213.65" cy="68.86" r="7.18" transform="translate(-10.09 87) rotate(-22.5)" fill="#fff"/><path d="M213.65,63.12a5.75,5.75,0,1,1-5.75,5.74,5.75,5.75,0,0,1,5.75-5.74m0-2.88a8.62,8.62,0,1,0,8.62,8.62,8.62,8.62,0,0,0-8.62-8.62Z" fill="#f88a82"/><circle cx="135.18" cy="176.25" r="8.6" fill="#94cfff"/><circle cx="225.48" cy="176.25" r="8.6" fill="#94cfff"/><polygon points="279.61 158.78 302.06 136.61 324.52 158.78 324.52 90.65 279.61 90.65 279.61 158.78" fill="#777"/><circle cx="302.06" cy="80.28" r="38.06" fill="#f44336"/><path d="M302.06,65.06a15.22,15.22,0,1,1-15.22,15.22,15.27,15.27,0,0,1,15.22-15.22m0-22.84a38.06,38.06,0,1,0,38.06,38.06,38,38,0,0,0-38.06-38.06Z" fill="#fff"/><path d="M302.06,53.64a26.64,26.64,0,1,1-26.64,26.64,26.72,26.72,0,0,1,26.64-26.64m0-11.42a38.06,38.06,0,1,0,38.06,38.06,38,38,0,0,0-38.06-38.06Z" fill="#53b1ff"/></svg>